<mxfile host="app.diagrams.net" modified="2024-02-26T17:52:41.894Z" agent="Mozilla/5.0 (Windows NT 10.0; Win64; x64) AppleWebKit/537.36 (KHTML, like Gecko) Chrome/122.0.0.0 Safari/537.36" etag="TEDDfwBogBoo8wv_djZk" version="23.1.6" type="device" pages="2">
  <diagram name="Modèle entité-association" id="yI0iyrHZkLMbIS5xyPjb">
    <mxGraphModel dx="2074" dy="1258" grid="1" gridSize="10" guides="1" tooltips="1" connect="1" arrows="1" fold="1" page="1" pageScale="1" pageWidth="850" pageHeight="1100" math="0" shadow="0">
      <root>
        <mxCell id="0" />
        <mxCell id="1" parent="0" />
        <mxCell id="i-5-Rq-wRSvrZoOoVcOD-7" value="" style="rounded=0;whiteSpace=wrap;html=1;" vertex="1" parent="1">
          <mxGeometry x="365" y="10" width="120" height="60" as="geometry" />
        </mxCell>
        <mxCell id="i-5-Rq-wRSvrZoOoVcOD-8" value="département d&#39;immigration du CCNB" style="text;html=1;align=center;verticalAlign=middle;whiteSpace=wrap;rounded=0;" vertex="1" parent="1">
          <mxGeometry x="395" y="30" width="60" height="30" as="geometry" />
        </mxCell>
        <mxCell id="i-5-Rq-wRSvrZoOoVcOD-14" value="Candidat" style="swimlane;childLayout=stackLayout;horizontal=1;startSize=50;horizontalStack=0;rounded=1;fontSize=14;fontStyle=0;strokeWidth=2;resizeParent=0;resizeLast=1;shadow=0;dashed=0;align=center;arcSize=4;whiteSpace=wrap;html=1;" vertex="1" parent="1">
          <mxGeometry x="550" y="120" width="180" height="230" as="geometry" />
        </mxCell>
        <mxCell id="i-5-Rq-wRSvrZoOoVcOD-15" value="IUC PK, INT, Unique&lt;br&gt;Nom varchar(50)&lt;br&gt;Prenom varchar(50)&lt;br&gt;date_de_Naissance date&lt;br&gt;pays_origine varchar(50)&lt;br&gt;Telephone varchar&lt;br&gt;no_passeport int&lt;br&gt;Statut_Matrimonial varchar(50)&lt;br&gt;résultat_Test, FK int&lt;br&gt;IUC_conjoint, FK int" style="align=left;strokeColor=none;fillColor=none;spacingLeft=4;fontSize=12;verticalAlign=top;resizable=0;rotatable=0;part=1;html=1;" vertex="1" parent="i-5-Rq-wRSvrZoOoVcOD-14">
          <mxGeometry y="50" width="180" height="180" as="geometry" />
        </mxCell>
        <mxCell id="tu8khx_pce_LIIpsWkec-7" value="" style="edgeStyle=entityRelationEdgeStyle;fontSize=12;html=1;endArrow=ERzeroToOne;startArrow=ERmandOne;rounded=0;exitX=1.006;exitY=0.828;exitDx=0;exitDy=0;exitPerimeter=0;entryX=1.011;entryY=0.05;entryDx=0;entryDy=0;entryPerimeter=0;" edge="1" parent="i-5-Rq-wRSvrZoOoVcOD-14" source="i-5-Rq-wRSvrZoOoVcOD-15" target="i-5-Rq-wRSvrZoOoVcOD-15">
          <mxGeometry width="100" height="100" relative="1" as="geometry">
            <mxPoint x="140" y="470" as="sourcePoint" />
            <mxPoint x="240" y="370" as="targetPoint" />
            <Array as="points">
              <mxPoint x="280" y="120" />
            </Array>
          </mxGeometry>
        </mxCell>
        <mxCell id="i-5-Rq-wRSvrZoOoVcOD-19" value="dossier d&#39;immigration" style="swimlane;childLayout=stackLayout;horizontal=1;startSize=50;horizontalStack=0;rounded=1;fontSize=14;fontStyle=0;strokeWidth=2;resizeParent=0;resizeLast=1;shadow=0;dashed=0;align=center;arcSize=4;whiteSpace=wrap;html=1;" vertex="1" parent="1">
          <mxGeometry x="160" y="90" width="160" height="140" as="geometry" />
        </mxCell>
        <mxCell id="i-5-Rq-wRSvrZoOoVcOD-20" value="id_dossier, PK&lt;br&gt;Nom_programme&lt;br&gt;canditatures&lt;br&gt;IUC, FK&lt;br&gt;&lt;div&gt;&lt;br/&gt;&lt;/div&gt;" style="align=left;strokeColor=none;fillColor=none;spacingLeft=4;fontSize=12;verticalAlign=top;resizable=0;rotatable=0;part=1;html=1;" vertex="1" parent="i-5-Rq-wRSvrZoOoVcOD-19">
          <mxGeometry y="50" width="160" height="90" as="geometry" />
        </mxCell>
        <mxCell id="i-5-Rq-wRSvrZoOoVcOD-24" value="tests" style="swimlane;childLayout=stackLayout;horizontal=1;startSize=50;horizontalStack=0;rounded=1;fontSize=14;fontStyle=0;strokeWidth=2;resizeParent=0;resizeLast=1;shadow=0;dashed=0;align=center;arcSize=4;whiteSpace=wrap;html=1;" vertex="1" parent="1">
          <mxGeometry x="340" y="410" width="105" height="140" as="geometry" />
        </mxCell>
        <mxCell id="i-5-Rq-wRSvrZoOoVcOD-25" value="IUC, FK, PK&lt;br&gt;nom_Test&lt;br&gt;résultat_Test int&lt;br&gt;date date&lt;div&gt;&lt;br/&gt;&lt;/div&gt;" style="align=left;strokeColor=none;fillColor=none;spacingLeft=4;fontSize=12;verticalAlign=top;resizable=0;rotatable=0;part=1;html=1;" vertex="1" parent="i-5-Rq-wRSvrZoOoVcOD-24">
          <mxGeometry y="50" width="105" height="90" as="geometry" />
        </mxCell>
        <mxCell id="i-5-Rq-wRSvrZoOoVcOD-27" value="agents consultants" style="swimlane;childLayout=stackLayout;horizontal=1;startSize=50;horizontalStack=0;rounded=1;fontSize=14;fontStyle=0;strokeWidth=2;resizeParent=0;resizeLast=1;shadow=0;dashed=0;align=center;arcSize=4;whiteSpace=wrap;html=1;" vertex="1" parent="1">
          <mxGeometry x="55" y="420" width="190" height="130" as="geometry" />
        </mxCell>
        <mxCell id="i-5-Rq-wRSvrZoOoVcOD-28" value="ID_Agent, PK&lt;br&gt;Commentaires, varchar(255)&lt;br&gt;IUC, FK" style="align=left;strokeColor=none;fillColor=none;spacingLeft=4;fontSize=12;verticalAlign=top;resizable=0;rotatable=0;part=1;html=1;" vertex="1" parent="i-5-Rq-wRSvrZoOoVcOD-27">
          <mxGeometry y="50" width="190" height="80" as="geometry" />
        </mxCell>
        <mxCell id="tu8khx_pce_LIIpsWkec-3" value="" style="edgeStyle=entityRelationEdgeStyle;fontSize=12;html=1;endArrow=ERoneToMany;rounded=0;entryX=-0.025;entryY=0.422;entryDx=0;entryDy=0;entryPerimeter=0;exitX=0.079;exitY=0.008;exitDx=0;exitDy=0;exitPerimeter=0;" edge="1" parent="1" source="i-5-Rq-wRSvrZoOoVcOD-27" target="i-5-Rq-wRSvrZoOoVcOD-20">
          <mxGeometry width="100" height="100" relative="1" as="geometry">
            <mxPoint x="80" y="390" as="sourcePoint" />
            <mxPoint x="190" y="310" as="targetPoint" />
            <Array as="points">
              <mxPoint x="60" y="420" />
              <mxPoint x="66" y="330" />
              <mxPoint x="70" y="310" />
              <mxPoint x="60" y="270" />
              <mxPoint x="60" y="320" />
              <mxPoint x="60" y="330" />
              <mxPoint x="70" y="330" />
            </Array>
          </mxGeometry>
        </mxCell>
        <mxCell id="tu8khx_pce_LIIpsWkec-4" value="" style="edgeStyle=entityRelationEdgeStyle;fontSize=12;html=1;endArrow=ERmandOne;startArrow=ERmandOne;rounded=0;exitX=1;exitY=0.5;exitDx=0;exitDy=0;entryX=0;entryY=0.25;entryDx=0;entryDy=0;" edge="1" parent="1" source="i-5-Rq-wRSvrZoOoVcOD-20" target="i-5-Rq-wRSvrZoOoVcOD-15">
          <mxGeometry width="100" height="100" relative="1" as="geometry">
            <mxPoint x="690" y="590" as="sourcePoint" />
            <mxPoint x="790" y="490" as="targetPoint" />
          </mxGeometry>
        </mxCell>
        <mxCell id="mW0TRUFm0ewWW8_eR5Zu-1" value="" style="edgeStyle=entityRelationEdgeStyle;fontSize=12;html=1;endArrow=ERmany;startArrow=ERmany;rounded=0;exitX=1.019;exitY=0.411;exitDx=0;exitDy=0;exitPerimeter=0;entryX=-0.006;entryY=0.706;entryDx=0;entryDy=0;entryPerimeter=0;" edge="1" parent="1" source="i-5-Rq-wRSvrZoOoVcOD-25" target="i-5-Rq-wRSvrZoOoVcOD-15">
          <mxGeometry width="100" height="100" relative="1" as="geometry">
            <mxPoint x="470" y="500" as="sourcePoint" />
            <mxPoint x="570" y="400" as="targetPoint" />
          </mxGeometry>
        </mxCell>
      </root>
    </mxGraphModel>
  </diagram>
  <diagram id="Fz0gqVezeZwrZOAI8in3" name="Modèle relationnel">
    <mxGraphModel dx="2074" dy="1258" grid="1" gridSize="10" guides="1" tooltips="1" connect="1" arrows="1" fold="1" page="1" pageScale="1" pageWidth="850" pageHeight="1100" math="0" shadow="0">
      <root>
        <mxCell id="0" />
        <mxCell id="1" parent="0" />
        <mxCell id="_nPoGxWu3NJnIKJfGLFa-3" value="List" style="swimlane;fontStyle=0;childLayout=stackLayout;horizontal=1;startSize=30;horizontalStack=0;resizeParent=1;resizeParentMax=0;resizeLast=0;collapsible=1;marginBottom=0;whiteSpace=wrap;html=1;" vertex="1" parent="1">
          <mxGeometry width="850" height="270" as="geometry" />
        </mxCell>
        <mxCell id="_nPoGxWu3NJnIKJfGLFa-4" value="TESTS" style="text;strokeColor=none;fillColor=none;align=left;verticalAlign=middle;spacingLeft=4;spacingRight=4;overflow=hidden;points=[[0,0.5],[1,0.5]];portConstraint=eastwest;rotatable=0;whiteSpace=wrap;html=1;" vertex="1" parent="_nPoGxWu3NJnIKJfGLFa-3">
          <mxGeometry y="30" width="850" height="30" as="geometry" />
        </mxCell>
        <mxCell id="_nPoGxWu3NJnIKJfGLFa-5" value="ID(iIUC, NOM_Test, résultat_Test, date(IUC est une FK&amp;nbsp; ainsi qu&#39;une PK pour cette table qui fait référence à la table candidat)" style="text;strokeColor=none;fillColor=none;align=left;verticalAlign=middle;spacingLeft=4;spacingRight=4;overflow=hidden;points=[[0,0.5],[1,0.5]];portConstraint=eastwest;rotatable=0;whiteSpace=wrap;html=1;" vertex="1" parent="_nPoGxWu3NJnIKJfGLFa-3">
          <mxGeometry y="60" width="850" height="30" as="geometry" />
        </mxCell>
        <mxCell id="_nPoGxWu3NJnIKJfGLFa-6" value="CANDIDAT" style="text;strokeColor=none;fillColor=none;align=left;verticalAlign=middle;spacingLeft=4;spacingRight=4;overflow=hidden;points=[[0,0.5],[1,0.5]];portConstraint=eastwest;rotatable=0;whiteSpace=wrap;html=1;" vertex="1" parent="_nPoGxWu3NJnIKJfGLFa-3">
          <mxGeometry y="90" width="850" height="30" as="geometry" />
        </mxCell>
        <mxCell id="_nPoGxWu3NJnIKJfGLFa-7" value="ID(IUC, Nom, Prenom, Date_de_Naissance, pays_origine, Telephone, no_Passeport, Statut Matrimonial, résultats_test" style="text;strokeColor=none;fillColor=none;align=left;verticalAlign=middle;spacingLeft=4;spacingRight=4;overflow=hidden;points=[[0,0.5],[1,0.5]];portConstraint=eastwest;rotatable=0;whiteSpace=wrap;html=1;" vertex="1" parent="_nPoGxWu3NJnIKJfGLFa-3">
          <mxGeometry y="120" width="850" height="30" as="geometry" />
        </mxCell>
        <mxCell id="_nPoGxWu3NJnIKJfGLFa-8" value="DOSSIER D&#39;IMMIGRATION" style="text;strokeColor=none;fillColor=none;align=left;verticalAlign=middle;spacingLeft=4;spacingRight=4;overflow=hidden;points=[[0,0.5],[1,0.5]];portConstraint=eastwest;rotatable=0;whiteSpace=wrap;html=1;" vertex="1" parent="_nPoGxWu3NJnIKJfGLFa-3">
          <mxGeometry y="150" width="850" height="30" as="geometry" />
        </mxCell>
        <mxCell id="_nPoGxWu3NJnIKJfGLFa-9" value="Item 2" style="text;strokeColor=none;fillColor=none;align=left;verticalAlign=middle;spacingLeft=4;spacingRight=4;overflow=hidden;points=[[0,0.5],[1,0.5]];portConstraint=eastwest;rotatable=0;whiteSpace=wrap;html=1;" vertex="1" parent="_nPoGxWu3NJnIKJfGLFa-3">
          <mxGeometry y="180" width="850" height="30" as="geometry" />
        </mxCell>
        <mxCell id="gaMYjGpeGY0tDIgP_WFn-1" value="AGENTS CONSULTANTS" style="text;strokeColor=none;fillColor=none;align=left;verticalAlign=middle;spacingLeft=4;spacingRight=4;overflow=hidden;points=[[0,0.5],[1,0.5]];portConstraint=eastwest;rotatable=0;whiteSpace=wrap;html=1;" vertex="1" parent="_nPoGxWu3NJnIKJfGLFa-3">
          <mxGeometry y="210" width="850" height="30" as="geometry" />
        </mxCell>
        <mxCell id="gaMYjGpeGY0tDIgP_WFn-2" value="Item 2" style="text;strokeColor=none;fillColor=none;align=left;verticalAlign=middle;spacingLeft=4;spacingRight=4;overflow=hidden;points=[[0,0.5],[1,0.5]];portConstraint=eastwest;rotatable=0;whiteSpace=wrap;html=1;" vertex="1" parent="_nPoGxWu3NJnIKJfGLFa-3">
          <mxGeometry y="240" width="850" height="30" as="geometry" />
        </mxCell>
        <mxCell id="IpjorocSRNVf2RUp1MeC-1" value="" style="rounded=0;whiteSpace=wrap;html=1;" vertex="1" parent="1">
          <mxGeometry x="350" y="520" width="120" height="60" as="geometry" />
        </mxCell>
        <mxCell id="IpjorocSRNVf2RUp1MeC-2" value="département d&#39;immigration du CCNB" style="text;html=1;align=center;verticalAlign=middle;whiteSpace=wrap;rounded=0;" vertex="1" parent="1">
          <mxGeometry x="380" y="540" width="60" height="30" as="geometry" />
        </mxCell>
        <mxCell id="IpjorocSRNVf2RUp1MeC-3" value="Candidat" style="swimlane;childLayout=stackLayout;horizontal=1;startSize=50;horizontalStack=0;rounded=1;fontSize=14;fontStyle=0;strokeWidth=2;resizeParent=0;resizeLast=1;shadow=0;dashed=0;align=center;arcSize=4;whiteSpace=wrap;html=1;" vertex="1" parent="1">
          <mxGeometry x="535" y="630" width="180" height="230" as="geometry" />
        </mxCell>
        <mxCell id="IpjorocSRNVf2RUp1MeC-4" value="IUC PK, INT, Unique&lt;br&gt;Nom varchar(50)&lt;br&gt;Prenom varchar(50)&lt;br&gt;date_de_Naissance date&lt;br&gt;pays_origine varchar(50)&lt;br&gt;Telephone varchar&lt;br&gt;no_passeport int&lt;br&gt;Statut_Matrimonial varchar(50)&lt;br&gt;résultats_Test, FK int&lt;br&gt;IUC_conjoint, FK int" style="align=left;strokeColor=none;fillColor=none;spacingLeft=4;fontSize=12;verticalAlign=top;resizable=0;rotatable=0;part=1;html=1;" vertex="1" parent="IpjorocSRNVf2RUp1MeC-3">
          <mxGeometry y="50" width="180" height="180" as="geometry" />
        </mxCell>
        <mxCell id="IpjorocSRNVf2RUp1MeC-5" value="" style="edgeStyle=entityRelationEdgeStyle;fontSize=12;html=1;endArrow=ERzeroToOne;startArrow=ERmandOne;rounded=0;exitX=1.006;exitY=0.828;exitDx=0;exitDy=0;exitPerimeter=0;entryX=1.011;entryY=0.05;entryDx=0;entryDy=0;entryPerimeter=0;" edge="1" parent="IpjorocSRNVf2RUp1MeC-3" source="IpjorocSRNVf2RUp1MeC-4" target="IpjorocSRNVf2RUp1MeC-4">
          <mxGeometry width="100" height="100" relative="1" as="geometry">
            <mxPoint x="140" y="470" as="sourcePoint" />
            <mxPoint x="240" y="370" as="targetPoint" />
            <Array as="points">
              <mxPoint x="280" y="120" />
            </Array>
          </mxGeometry>
        </mxCell>
        <mxCell id="IpjorocSRNVf2RUp1MeC-6" value="dossier d&#39;immigration" style="swimlane;childLayout=stackLayout;horizontal=1;startSize=50;horizontalStack=0;rounded=1;fontSize=14;fontStyle=0;strokeWidth=2;resizeParent=0;resizeLast=1;shadow=0;dashed=0;align=center;arcSize=4;whiteSpace=wrap;html=1;" vertex="1" parent="1">
          <mxGeometry x="145" y="600" width="160" height="140" as="geometry" />
        </mxCell>
        <mxCell id="IpjorocSRNVf2RUp1MeC-7" value="id_dossier, PK&lt;br&gt;Nom_programme&lt;br&gt;canditatures&lt;br&gt;IUC, FK&lt;br&gt;&lt;div&gt;&lt;br/&gt;&lt;/div&gt;" style="align=left;strokeColor=none;fillColor=none;spacingLeft=4;fontSize=12;verticalAlign=top;resizable=0;rotatable=0;part=1;html=1;" vertex="1" parent="IpjorocSRNVf2RUp1MeC-6">
          <mxGeometry y="50" width="160" height="90" as="geometry" />
        </mxCell>
        <mxCell id="IpjorocSRNVf2RUp1MeC-8" value="tests" style="swimlane;childLayout=stackLayout;horizontal=1;startSize=50;horizontalStack=0;rounded=1;fontSize=14;fontStyle=0;strokeWidth=2;resizeParent=0;resizeLast=1;shadow=0;dashed=0;align=center;arcSize=4;whiteSpace=wrap;html=1;" vertex="1" parent="1">
          <mxGeometry x="325" y="920" width="105" height="140" as="geometry" />
        </mxCell>
        <mxCell id="IpjorocSRNVf2RUp1MeC-9" value="IUC, FK, PK&lt;br&gt;nom_Test&lt;br&gt;résultat_Test int&lt;br&gt;date date&lt;div&gt;&lt;br/&gt;&lt;/div&gt;" style="align=left;strokeColor=none;fillColor=none;spacingLeft=4;fontSize=12;verticalAlign=top;resizable=0;rotatable=0;part=1;html=1;" vertex="1" parent="IpjorocSRNVf2RUp1MeC-8">
          <mxGeometry y="50" width="105" height="90" as="geometry" />
        </mxCell>
        <mxCell id="IpjorocSRNVf2RUp1MeC-10" value="agents consultants" style="swimlane;childLayout=stackLayout;horizontal=1;startSize=50;horizontalStack=0;rounded=1;fontSize=14;fontStyle=0;strokeWidth=2;resizeParent=0;resizeLast=1;shadow=0;dashed=0;align=center;arcSize=4;whiteSpace=wrap;html=1;" vertex="1" parent="1">
          <mxGeometry x="40" y="930" width="190" height="130" as="geometry" />
        </mxCell>
        <mxCell id="IpjorocSRNVf2RUp1MeC-11" value="ID_Agent, PK&lt;br&gt;Commentaires, varchar(255)&lt;br&gt;IUC, FK" style="align=left;strokeColor=none;fillColor=none;spacingLeft=4;fontSize=12;verticalAlign=top;resizable=0;rotatable=0;part=1;html=1;" vertex="1" parent="IpjorocSRNVf2RUp1MeC-10">
          <mxGeometry y="50" width="190" height="80" as="geometry" />
        </mxCell>
        <mxCell id="IpjorocSRNVf2RUp1MeC-12" value="" style="edgeStyle=entityRelationEdgeStyle;fontSize=12;html=1;endArrow=ERoneToMany;rounded=0;entryX=-0.025;entryY=0.422;entryDx=0;entryDy=0;entryPerimeter=0;exitX=0.079;exitY=0.008;exitDx=0;exitDy=0;exitPerimeter=0;" edge="1" parent="1" source="IpjorocSRNVf2RUp1MeC-10" target="IpjorocSRNVf2RUp1MeC-7">
          <mxGeometry width="100" height="100" relative="1" as="geometry">
            <mxPoint x="65" y="900" as="sourcePoint" />
            <mxPoint x="175" y="820" as="targetPoint" />
            <Array as="points">
              <mxPoint x="45" y="930" />
              <mxPoint x="51" y="840" />
              <mxPoint x="55" y="820" />
              <mxPoint x="45" y="780" />
              <mxPoint x="45" y="830" />
              <mxPoint x="45" y="840" />
              <mxPoint x="55" y="840" />
            </Array>
          </mxGeometry>
        </mxCell>
        <mxCell id="IpjorocSRNVf2RUp1MeC-13" value="" style="edgeStyle=entityRelationEdgeStyle;fontSize=12;html=1;endArrow=ERmandOne;startArrow=ERmandOne;rounded=0;exitX=1;exitY=0.5;exitDx=0;exitDy=0;entryX=0;entryY=0.25;entryDx=0;entryDy=0;" edge="1" parent="1" source="IpjorocSRNVf2RUp1MeC-7" target="IpjorocSRNVf2RUp1MeC-4">
          <mxGeometry width="100" height="100" relative="1" as="geometry">
            <mxPoint x="675" y="1100" as="sourcePoint" />
            <mxPoint x="775" y="1000" as="targetPoint" />
          </mxGeometry>
        </mxCell>
        <mxCell id="IpjorocSRNVf2RUp1MeC-14" value="" style="edgeStyle=entityRelationEdgeStyle;fontSize=12;html=1;endArrow=ERmandOne;rounded=0;exitX=1;exitY=0.5;exitDx=0;exitDy=0;entryX=-0.011;entryY=0.706;entryDx=0;entryDy=0;entryPerimeter=0;" edge="1" parent="1" source="IpjorocSRNVf2RUp1MeC-9" target="IpjorocSRNVf2RUp1MeC-4">
          <mxGeometry width="100" height="100" relative="1" as="geometry">
            <mxPoint x="675" y="1100" as="sourcePoint" />
            <mxPoint x="775" y="1000" as="targetPoint" />
          </mxGeometry>
        </mxCell>
      </root>
    </mxGraphModel>
  </diagram>
</mxfile>
